<svg xmlns="http://www.w3.org/2000/svg" width="512" height="512" xmlns:xlink="http://www.w3.org/1999/xlink"><circle cx="-808" cy="255.7" r="233" fill="#1A1A1A"/><circle cx="-276" cy="257.7" r="233" fill="#1A1A1A"/><circle cx="256" cy="255.7" r="233" fill="#1A1A1A"/><circle cx="788" cy="255.7" r="233" fill="#1A1A1A"/><circle cx="1320" cy="255.7" r="233" fill="#1A1A1A"/><circle cx="1852" cy="255.7" r="233" fill="#1A1A1A"/><circle cx="2384" cy="255.7" r="233" fill="#1A1A1A"/><path fill="#F2F2F2" fill-rule="evenodd" d="M1246.4 321.5l34.7 56c17-10.3 34-20 51-30.3 3-8.3-53-23.2-25-52.7 34-35.7 58-9.2 52 26 2 1.3 1 4.7 4 5.2 17-2.8 40-22 54-29.4l-29-59c18-12.7 57 3.4 48-38.7-8-41-56-29.8-58 1.3l-4 3c-13-5-28-39-37-56-17 9-18 11-35 20 0 2-4 0-1 6s16 6 24 11c16 20-5 50-28 51-36 1-15-34-29-49l-69 40c10 19 22 39 32 59m546 64c-3 8-6 16-9 23-2 4-6 5-11 3-4-2-7-5-5-9l9-24 16 6zm169 31c-1-2-3-4-4-7l-36-94c-1-4-3-6-7-6h-38v16c-4-1-10-1-12-3s0-8 0-12c-14 0-26 0-39 1-1 0-3 2-4 4l-19 51-2 6-16-6c7-19 14-37 21-56l-16 2c-5 0-9 1-13 0-2-1-3-5-3-7 0-3 0-6 4-6s9 1 13 2h16c1 0 3-2 3-3l37-96c1-2 0-5-1-7-4-12-1-25 9-32 10-8 24-8 34-1 10 8 14 20 9 32-1 2-1 6 0 8l36 94c1 3 3 4 6 4l23-2c5-1 7 1 7 6s-2 7-7 6c-6 0-12-1-18-2h-6l7 17c5 14 10 28 16 42 6 12 5 25 4 37v10h-2zm-48-114l-34-87c0-2-3-2-5-2-3-1-7 0-11 0-4-1-6 0-7 4l-30 80-1 4h37v-12h13l1 13h39zm-46-101c9 0 16-6 16-15 0-8-7-15-15-15s-15 7-15 15 6 15 15 15zm10-45h-18c1-5 1-11 3-15 2-2 10-2 11 0 3 3 3 9 4 14zm-103 223l3-8 16 6-3 8-16-6z" clip-rule="evenodd"/><g opacity=".5"><defs><path id="a" d="M2402.4 171h129v138.3h-129z"/></defs><clipPath id="b"><use xlink:href="#a" overflow="visible"/></clipPath><g clip-path="url(#b)"><defs><path id="c" d="M2402.4 177.6h129v131.7h-129z"/></defs><clipPath id="d"><use xlink:href="#c" overflow="visible"/></clipPath><path fill="#F2F2F2" d="M2482.6 239.2v9.7l6 2 7 3 7.4 3 7 3 6 2 4.3 1c2.3 1 4.2 2 5.7 4 1.4 1 2.5 3 3.4 5 1 2 1.7 4 2 17v19h-129v-29c.5-2 1.3-5 2.3-7 .8-2 2-4 3.4-5 2-2 4-3 6-4l5-2 7-3 8-3 8-4 7-3 6-3v-11l-1-3-1-3c-1-3-3-6-4-10s-1-8-1-12c0-6 1-11 2-14 1-4 3-7 5-10s4-5 7-6 6-2 9-2 6 0 9 1 5 3 7 5 4 5 5 9 2 9 2 14c0 4 0 8-1 12l-3 10c0 1-1 2-1 4l-1 3v2" clip-path="url(#d)"/></g></g><g opacity=".5"><defs><path id="e" d="M2236.5 171h129v138.3h-129z"/></defs><clipPath id="f"><use xlink:href="#e" overflow="visible"/></clipPath><g clip-path="url(#f)"><defs><path id="g" d="M2236.5 177.6h129v131.7h-129z"/></defs><clipPath id="h"><use xlink:href="#g" overflow="visible"/></clipPath><path fill="#F2F2F2" d="M2316.7 239.2v9.7l6 2 7 3 7.4 3c3 1 5 2 7 3l6 2 5 1c3 1 4 2 6 4 2 1 3 3 4 5s2 4 2 17v19h-129v-29c1-2 1-5 2-7s2-4 4-5c2-2 4-3 6-4l5-2 6-3 8-3 8-4 7-3 6-3v-12l-1-3-1-3c-1-3-3-6-4-10s-1-8-1-12c0-6 1-11 2-14 1-4 3-7 5-10s5-5 7-6c3-1 6-2 9-2s6 0 9 1 5 3 7 5 4 5 5 9 2 9 2 14c0 4 0 8-1 12l-3 10-1 4-1 3v2" clip-path="url(#h)"/></g></g><path fill="#F2F2F2" d="M2410.8 248.4V265c3 1.4 6.5 3 10.4 4.6l12 5.3 12.5 5 12 5 10.3 4 7.4 3c4 1 7.2 3 9.7 6 3 3 5 5 6 9 2 3 3 7 4 11v18h-221v-18c1-4 2-8 4-11l6-9c3-3 6-5 10-7 2-1 5-2 8-3l11-5 13-6 13-6 13-6 11-5v-16l-1-4-1-5c0-2-1-4-2-6-2-5-5-11-6-18s-2-14-2-21c0-10 1-18 3-25s5-12 8-16c4-5 8-8 12-9 5-2 10-3 16-3s11 1 15 2c5 2 9 5 13 9s7 9 9 16 3 15 3 24c0 7 0 14-2 20s-4 12-6 17l-2 7c-1 1-1 3-2 5s-1 3-1 3"/><path fill="#FFF" d="M-675.2 232.2h-13c-6.2 0-12.6-4.7-14.4-10.4l-7.5-18.4c-3-5.3-2-13.2 2-17.4l9-9.4c4-4.2 4-11.2 0-15.5l-16-15c-5-4-12-4-16 0l-10 10c-4 5-12 6-18 3l-19-7c-6-1-10-8-10-14v-13c0-6-5-11-11-11h-22c-6 0-11 5-11 11v13c0 6-5 13-11 15l-18 7c-6 3-13 2-18-2l-10-9c-4-4-11-4-16 0l-15 15c-4 5-4 12 0 16l9 10c4 5 5 12 2 18l-7 18c-2 6-9 11-15 11h-13c-6 0-11 5-11 11v22c0 6 5 11 11 11h13c6 0 12 5 14 11l7 19c3 5 2 13-3 17l-9 10c-4 5-4 12 0 16l16 16c4 4 11 4 15 0l9-9c4-4 12-6 17-3l19 7c6 2 10 8 10 14v13c0 6 5 11 11 11h22c6 0 11-5 11-11v-13c0-6 5-12 11-14l19-7c5-3 13-1 17 3l9 10c4 4 11 4 15 0l16-16c4-4 4-11 0-15.6l-10-9c-5-4-6-12-3-17.6l7-18.2c2-5 8-10 14-10h13c6 0 11-5 11-11v-22c0-6-5-11-11-11m-77 22c0 30-24.6 55-55 55s-55-25-55-55 25-55 55-55 55 25 55 55m560 88c0 23-18.6 41-41.4 41s-41-18-41-41c0-22 19-41 41.6-41 22.2 0 41 19 41 41m27-181c0 23-18.8 41-41 41-23 0-41.8-18-41.8-41s19-41 42-41 41 19 41 41m-173 109c0 23-18 41-41 41s-41-18-41-41 19-41 41.3-41 41 19 41 41"/><path fill="none" stroke="#FFF" stroke-width="10" d="M-380.6 268.8l174-107.4M-230 343.8l-150.7-72"/><path fill="#FFF" d="M313 385.8H203.5v-18.5h6c7.6 0 13.3-1 17-3.2 3.4-2 5.6-5 6.4-9 0-3 1-9 1-17v-59c0-8-1-14-2-17s-4-6-8-7-11-2-21-2v-19l82-17v123c0 12 1 19 4 23 2 5 10 7 22 7v18zm-23-250c0 8-2.7 15-8.4 20.6C276 162 269 165 261 165c-8 0-14.8-3-20.7-8.8s-8.7-12.6-8.7-20.4c0-8 3-15 8.6-20.7 5.8-5 12.7-8 20.8-8 8 0 15 3 20.7 9s8.4 13 8.4 21zm412.3 72.8c.3-13 2.5-25 6.7-35.7 4.2-11 10-21 17.6-28 7.6-8 16.7-15 27.4-19 10.7-5 22.6-7 35.8-7 17 0 31.3 2 42.7 7 11.5 5 20.5 11 27.5 18s12 14 15 22 4.5 15 4.5 22c0 9-1 16-2.6 22-2 6-4 12-7 16s-6 9-10 12l-11 9-12 8c-4 2-8 5-11 9-4 3-6 7-9 10-3 4-4 9-5 14v14h-49v-16c0-8 2-15 4-21s4-11 7-16 6-8 9-12c3-3 7-7 10-9l10-8c3-3 6-6 8-9s4-7 6-10 2-8 2-13c0-11-3-19-8-25-6-6-13-8-23-8-7 0-12 1-17 4-5 2-9 5-12 10-3 4-5 9-7 14-2 6-2 12-2 18h-53zm58 118.8h56.5v55.4h-56.5v-55.4z"/></svg>